<svg width="1604" height="543" viewBox="0 0 1604 543" fill="none" xmlns="http://www.w3.org/2000/svg">
<path d="M1264.76 350.624V188.82H1297.58L1349.36 293.3L1400.67 188.82H1433.73V350.624H1405.99V236.437L1360.22 327.972H1338.5L1292.5 236.668V350.624H1264.76Z" fill="white"/>
<path d="M1162.53 353.399C1146.97 353.399 1133.18 349.931 1121.16 342.997C1109.29 335.908 1099.97 326.123 1093.19 313.641C1086.41 301.005 1083.02 286.365 1083.02 269.723C1083.02 253.234 1086.41 238.749 1093.19 226.267C1099.97 213.631 1109.29 203.768 1121.16 196.68C1133.18 189.591 1146.97 186.047 1162.53 186.047C1178.41 186.047 1192.35 189.591 1204.37 196.68C1216.39 203.768 1225.71 213.631 1232.34 226.267C1238.97 238.749 1242.28 253.234 1242.28 269.723C1242.28 286.365 1238.97 301.005 1232.34 313.641C1225.71 326.123 1216.39 335.908 1204.37 342.997C1192.35 349.931 1178.41 353.399 1162.53 353.399ZM1162.76 328.435C1173.09 328.435 1182.1 326.123 1189.81 321.5C1197.51 316.723 1203.45 309.943 1207.61 301.159C1211.77 292.375 1213.85 281.897 1213.85 269.723C1213.85 257.549 1211.77 247.07 1207.61 238.287C1203.45 229.503 1197.51 222.8 1189.81 218.177C1182.1 213.399 1173.09 211.011 1162.76 211.011C1152.44 211.011 1143.43 213.399 1135.72 218.177C1128.02 222.8 1122.01 229.503 1117.69 238.287C1113.53 247.07 1111.45 257.549 1111.45 269.723C1111.45 281.897 1113.53 292.375 1117.69 301.159C1122.01 309.943 1128.02 316.723 1135.72 321.5C1143.43 326.123 1152.44 328.435 1162.76 328.435Z" fill="white"/>
<path d="M996.009 353.399C979.982 353.399 966.113 349.931 954.402 342.997C942.844 335.908 933.907 326.123 927.588 313.641C921.425 301.005 918.343 286.443 918.343 269.954C918.343 253.311 921.425 238.749 927.588 226.267C933.907 213.631 942.844 203.768 954.402 196.68C966.113 189.591 979.982 186.047 996.009 186.047C1015.27 186.047 1030.99 190.824 1043.16 200.378C1055.34 209.778 1063.04 223.108 1066.28 240.367H1035.77C1033.61 231.275 1029.22 224.109 1022.59 218.87C1015.96 213.631 1007.03 211.011 995.777 211.011C985.607 211.011 976.823 213.399 969.426 218.177C962.184 222.8 956.559 229.58 952.553 238.518C948.7 247.301 946.774 257.78 946.774 269.954C946.774 282.128 948.7 292.606 952.553 301.39C956.559 310.02 962.184 316.723 969.426 321.5C976.823 326.123 985.607 328.435 995.777 328.435C1007.03 328.435 1015.96 326.046 1022.59 321.269C1029.22 316.338 1033.61 309.557 1035.77 300.928H1066.28C1063.2 317.262 1055.49 330.13 1043.16 339.53C1030.99 348.776 1015.27 353.399 996.009 353.399Z" fill="white"/>
<path d="M868.474 350.624V188.82H896.212V350.624H868.474Z" fill="white"/>
<path d="M743.447 350.624V188.82H771.185V328.896H843.304V350.624H743.447Z" fill="white"/>
<path d="M586.925 350.624V188.82H639.164C657.965 188.82 673.452 192.133 685.625 198.76C697.953 205.386 707.045 214.786 712.901 226.96C718.911 238.98 721.916 253.311 721.916 269.954C721.916 286.288 718.911 300.542 712.901 312.716C707.045 324.736 697.953 334.059 685.625 340.685C673.452 347.311 657.965 350.624 639.164 350.624H586.925ZM614.663 327.047H637.778C651.801 327.047 662.819 324.813 670.832 320.344C678.999 315.721 684.778 309.172 688.168 300.696C691.712 292.067 693.484 281.819 693.484 269.954C693.484 257.934 691.712 247.686 688.168 239.211C684.778 230.581 678.999 223.955 670.832 219.332C662.819 214.555 651.801 212.166 637.778 212.166H614.663V327.047Z" fill="white"/>
<path opacity="0.1" d="M1433.73 350.625V188.821H1466.55L1518.33 293.301L1569.64 188.821H1602.7V350.625H1574.96V236.438L1529.19 327.973H1507.47L1461.47 236.669V350.625H1433.73Z" fill="white"/>
<path opacity="0.1" d="M0 350.625V188.821H32.8231L84.6005 293.301L135.916 188.821H168.97V350.625H141.232V236.438L95.4645 327.973H73.7365L27.7379 236.669V350.625H0Z" fill="white"/>
<path opacity="0.1" d="M169.235 161.804V0H202.058L253.835 104.479L305.15 0H338.204V161.804H310.467V47.6167L264.699 139.152H242.971L196.972 47.8478V161.804H169.235Z" fill="white"/>
<path opacity="0.1" d="M389.176 161.804V0H421.999L473.776 104.479L525.092 0H558.146V161.804H530.408V47.6167L484.64 139.152H462.913L416.914 47.8478V161.804H389.176Z" fill="white"/>
<path opacity="0.1" d="M1264.76 161.804V0H1297.58L1349.36 104.479L1400.67 0H1433.73V161.804H1405.99V47.6167L1360.22 139.152H1338.5L1292.5 47.8478V161.804H1264.76Z" fill="white"/>
<path opacity="0.1" d="M169.235 541.568V379.764H202.058L253.835 484.243L305.15 379.764H338.204V541.568H310.467V427.38L264.699 518.915H242.971L196.972 427.611V541.568H169.235Z" fill="white"/>
<path opacity="0.1" d="M1264.76 541.568V379.764H1297.58L1349.36 484.243L1400.67 379.764H1433.73V541.568H1405.99V427.38L1360.22 518.915H1338.5L1292.5 427.611V541.568H1264.76Z" fill="white"/>
<line x1="1434.16" y1="-1.87443e-08" x2="1434.16" y2="541.568" stroke="white" stroke-width="0.85764"/>
<line x1="169.398" y1="-1.87443e-08" x2="169.398" y2="541.568" stroke="white" stroke-width="0.85764"/>
<line x1="0.42882" y1="-1.87443e-08" x2="0.428844" y2="541.568" stroke="white" stroke-width="0.85764"/>
<line x1="1603.13" y1="-1.87443e-08" x2="1603.13" y2="541.568" stroke="white" stroke-width="0.85764"/>
<line x1="1264.92" y1="-1.87443e-08" x2="1264.92" y2="541.568" stroke="white" stroke-width="0.85764"/>
<line x1="338.633" y1="-1.87443e-08" x2="338.633" y2="541.568" stroke="white" stroke-width="0.85764"/>
<line x1="530.836" y1="-1.87443e-08" x2="530.836" y2="541.568" stroke="white" stroke-width="0.85764"/>
<line x1="558.574" y1="-1.87443e-08" x2="558.574" y2="541.568" stroke="white" stroke-width="0.85764"/>
<line x1="587.228" y1="-1.87443e-08" x2="587.228" y2="541.568" stroke="white" stroke-width="0.85764"/>
<line x1="1602.7" y1="161.512" x2="0.000366211" y2="161.512" stroke="white" stroke-width="0.85764"/>
<line x1="1602.7" y1="351.055" x2="0.000366211" y2="351.055" stroke="white" stroke-width="0.85764"/>
<line x1="1602.7" y1="189.25" x2="0.000366211" y2="189.25" stroke="white" stroke-width="0.85764"/>
<line x1="1602.7" y1="378.792" x2="0.000366211" y2="378.792" stroke="white" stroke-width="0.85764"/>
<line x1="1602.7" y1="0.42882" x2="0.000366211" y2="0.42882" stroke="white" stroke-width="0.85764"/>
<line x1="1602.7" y1="541.996" x2="0.000366211" y2="541.996" stroke="white" stroke-width="0.85764"/>
<rect opacity="0.3" x="530.407" y="161.083" width="27.738" height="27.738" fill="white"/>
<rect opacity="0.3" x="559.061" y="161.083" width="27.738" height="27.738" fill="white"/>
<rect opacity="0.3" x="530.407" y="350.626" width="27.738" height="27.738" fill="white"/>
<rect opacity="0.3" x="559.061" y="350.626" width="27.738" height="27.738" fill="white"/>
<rect x="286.954" y="204.126" width="131.888" height="129.182" fill="#101010"/>
<path d="M522.251 178.771C531.356 174.698 528.453 161.084 518.474 161.084H347.759C298.432 161.084 256.94 194.683 244.904 240.248H245.017C243.565 245.617 242.508 251.142 241.902 256.807C241.55 260.317 241.367 263.868 241.367 267.476V271.155C241.663 281.88 243.523 292.21 246.75 301.935L273.782 289.843L296.134 279.85L285.874 269.59L348.407 207.057L382.556 241.206L397.96 234.314L441.326 214.921L522.237 178.743L522.251 178.771Z" fill="white"/>
<path d="M348.419 230.986L309.805 269.6L312.666 272.475L366.035 248.616L348.419 230.986Z" fill="white"/>
<path d="M174.718 360.677C165.614 364.75 168.517 378.365 178.495 378.365H349.21C398.552 378.365 440.043 344.766 452.065 299.201H451.953C453.404 293.832 454.461 288.307 455.067 282.641C455.42 279.132 455.603 275.58 455.603 271.972V268.294C455.307 257.569 453.446 247.238 450.219 237.514L423.188 249.606L400.835 259.598L411.095 269.858L348.562 332.392L314.413 298.243L299.009 305.135L255.643 324.527L174.718 360.677Z" fill="white"/>
<path d="M348.56 308.456L387.174 269.842L384.299 266.967L330.944 290.826L348.56 308.456Z" fill="white"/>
<path d="M348.42 230.99L309.805 269.604L348.42 308.219L387.035 269.604L348.42 230.99Z" fill="white"/>
</svg>
